<svg width="100" height="100" viewBox="0 0 100 100" fill="none" xmlns="http://www.w3.org/2000/svg">
<circle cx="50" cy="50" r="50" fill="#0A131A"/>
<path d="M16.016 35.544H47.504L31.76 69.672L16.016 35.544ZM31.76 65.448L44.768 37.32H18.8L31.76 65.448ZM66.7153 69.72C64.4433 69.72 62.3313 69.208 60.3793 68.184C58.4273 67.128 56.8273 65.688 55.5793 63.864C54.3313 62.04 53.5953 60.024 53.3713 57.816H55.1473C55.3713 59.704 56.0273 61.432 57.1153 63C58.2033 64.536 59.5793 65.752 61.2433 66.648C62.9393 67.512 64.7633 67.944 66.7153 67.944C68.8593 67.944 70.8273 67.416 72.6193 66.36C74.4113 65.304 75.8353 63.848 76.8913 61.992C77.9473 60.136 78.4753 58.056 78.4753 55.752V37.368H63.4993V35.592H80.2033V55.752C80.2033 58.376 79.5953 60.76 78.3793 62.904C77.1953 65.016 75.5633 66.68 73.4833 67.896C71.4353 69.112 69.1793 69.72 66.7153 69.72Z" fill="#00FF82"/>
<path d="M16.016 35.544V34.544H14.4534L15.108 35.9629L16.016 35.544ZM47.504 35.544L48.412 35.9629L49.0666 34.544H47.504V35.544ZM31.76 69.672L30.852 70.0909L31.76 72.0592L32.668 70.0909L31.76 69.672ZM31.76 65.448L30.8518 65.8665L31.7583 67.834L32.6676 65.8677L31.76 65.448ZM44.768 37.32L45.6756 37.7397L46.3322 36.32H44.768V37.32ZM18.8 37.32V36.32H17.2382L17.8918 37.7385L18.8 37.32ZM16.016 36.544H47.504V34.544H16.016V36.544ZM46.596 35.1251L30.852 69.2531L32.668 70.0909L48.412 35.9629L46.596 35.1251ZM32.668 69.2531L16.924 35.1251L15.108 35.9629L30.852 70.0909L32.668 69.2531ZM32.6676 65.8677L45.6756 37.7397L43.8604 36.9003L30.8524 65.0283L32.6676 65.8677ZM44.768 36.32H18.8V38.32H44.768V36.32ZM17.8918 37.7385L30.8518 65.8665L32.6682 65.0295L19.7082 36.9015L17.8918 37.7385ZM60.3793 68.184L59.9034 69.0636L59.9147 69.0695L60.3793 68.184ZM55.5793 63.864L56.4046 63.2993L55.5793 63.864ZM53.3713 57.816V56.816H52.2647L52.3764 57.9169L53.3713 57.816ZM55.1473 57.816L56.1403 57.6982L56.0356 56.816H55.1473V57.816ZM57.1153 63L56.2936 63.5701L56.2992 63.578L57.1153 63ZM61.2433 66.648L60.7692 67.5285L60.7792 67.5339L60.7893 67.539L61.2433 66.648ZM72.6193 66.36L73.1269 67.2215L73.1269 67.2215L72.6193 66.36ZM76.8913 61.992L77.7604 62.4865L77.7604 62.4865L76.8913 61.992ZM78.4753 37.368H79.4753V36.368H78.4753V37.368ZM63.4993 37.368H62.4993V38.368H63.4993V37.368ZM63.4993 35.592V34.592H62.4993V35.592H63.4993ZM80.2033 35.592H81.2033V34.592H80.2033V35.592ZM78.3793 62.904L77.5094 62.4107L77.507 62.415L78.3793 62.904ZM73.4833 67.896L72.9785 67.0327L72.9727 67.0361L73.4833 67.896ZM66.7153 68.72C64.5999 68.72 62.648 68.2449 60.8438 67.2985L59.9147 69.0695C62.0145 70.1711 64.2866 70.72 66.7153 70.72V68.72ZM60.8551 67.3045C59.0423 66.3238 57.5624 64.9915 56.4046 63.2993L54.7539 64.4287C56.0921 66.3845 57.8122 67.9322 59.9034 69.0635L60.8551 67.3045ZM56.4046 63.2993C55.2514 61.6139 54.5733 59.7575 54.3661 57.7151L52.3764 57.9169C52.6172 60.2905 53.4111 62.4661 54.7539 64.4287L56.4046 63.2993ZM53.3713 58.816H55.1473V56.816H53.3713V58.816ZM54.1542 57.9338C54.3976 59.985 55.1127 61.8682 56.2937 63.5701L57.9368 62.4299C56.9418 60.9958 56.3449 59.423 56.1403 57.6982L54.1542 57.9338ZM56.2992 63.578C57.4767 65.2404 58.97 66.5597 60.7692 67.5285L61.7174 65.7675C60.1885 64.9443 58.9298 63.8316 57.9313 62.422L56.2992 63.578ZM60.7893 67.539C62.6296 68.4765 64.6096 68.944 66.7153 68.944V66.944C64.9169 66.944 63.2489 66.5475 61.6972 65.757L60.7893 67.539ZM66.7153 68.944C69.0321 68.944 71.1762 68.3711 73.1269 67.2215L72.1116 65.4985C70.4783 66.4609 68.6864 66.944 66.7153 66.944V68.944ZM73.1269 67.2215C75.0736 66.0744 76.6204 64.4901 77.7604 62.4865L76.0221 61.4975C75.0501 63.2059 73.7489 64.5336 72.1116 65.4985L73.1269 67.2215ZM77.7604 62.4865C78.9089 60.468 79.4753 58.2153 79.4753 55.752H77.4753C77.4753 57.8967 76.9856 59.804 76.0221 61.4975L77.7604 62.4865ZM79.4753 55.752V37.368H77.4753V55.752H79.4753ZM78.4753 36.368H63.4993V38.368H78.4753V36.368ZM64.4993 37.368V35.592H62.4993V37.368H64.4993ZM63.4993 36.592H80.2033V34.592H63.4993V36.592ZM79.2033 35.592V55.752H81.2033V35.592H79.2033ZM79.2033 55.752C79.2033 58.2146 78.6346 60.4268 77.5094 62.4107L79.2491 63.3973C80.5559 61.0932 81.2033 58.5374 81.2033 55.752H79.2033ZM77.507 62.415C76.4096 64.3725 74.9041 65.907 72.9786 67.0327L73.9879 68.7593C76.2224 67.453 77.9809 65.6595 79.2515 63.393L77.507 62.415ZM72.9727 67.0361C71.0847 68.1572 69.0061 68.72 66.7153 68.72V70.72C69.3524 70.72 71.7858 70.0668 73.9938 68.7559L72.9727 67.0361Z" fill="#00FF82"/>
</svg>
