<svg width="65" height="35" viewBox="0 0 65 35" fill="none" xmlns="http://www.w3.org/2000/svg">
<path d="M0.0160002 0.543999H31.504L15.76 34.672L0.0160002 0.543999ZM15.76 30.448L28.768 2.32H2.8L15.76 30.448ZM50.7153 34.72C48.4433 34.72 46.3313 34.208 44.3793 33.184C42.4273 32.128 40.8273 30.688 39.5793 28.864C38.3313 27.04 37.5953 25.024 37.3713 22.816H39.1473C39.3713 24.704 40.0273 26.432 41.1153 28C42.2033 29.536 43.5793 30.752 45.2433 31.648C46.9393 32.512 48.7633 32.944 50.7153 32.944C52.8593 32.944 54.8273 32.416 56.6193 31.36C58.4113 30.304 59.8353 28.848 60.8913 26.992C61.9473 25.136 62.4753 23.056 62.4753 20.752V2.368H47.4993V0.591998H64.2033V20.752C64.2033 23.376 63.5953 25.76 62.3793 27.904C61.1953 30.016 59.5633 31.68 57.4833 32.896C55.4353 34.112 53.1793 34.72 50.7153 34.72Z" fill="#00FF82"/>
<path d="M0.0160003 0.543999V-0.456001H-1.5466L-0.892034 0.962894L0.0160003 0.543999ZM31.504 0.543999L32.412 0.962894L33.0666 -0.456001H31.504V0.543999ZM15.76 34.672L14.852 35.0909L15.76 37.0592L16.668 35.0909L15.76 34.672ZM15.76 30.448L14.8518 30.8665L15.7583 32.834L16.6676 30.8677L15.76 30.448ZM28.768 2.32L29.6756 2.73974L30.3322 1.32H28.768V2.32ZM2.8 2.32V1.32H1.23821L1.89177 2.73847L2.8 2.32ZM0.0160003 1.544H31.504V-0.456001H0.0160003V1.544ZM30.596 0.125103L14.852 34.2531L16.668 35.0909L32.412 0.962894L30.596 0.125103ZM16.668 34.2531L0.924034 0.125103L-0.892034 0.962894L14.852 35.0909L16.668 34.2531ZM16.6676 30.8677L29.6756 2.73974L27.8604 1.90025L14.8524 30.0283L16.6676 30.8677ZM28.768 1.32H2.8V3.32H28.768V1.32ZM1.89177 2.73847L14.8518 30.8665L16.6682 30.0295L3.70823 1.90153L1.89177 2.73847ZM44.3792 33.184L43.9034 34.0636L43.9147 34.0695L44.3792 33.184ZM39.5793 28.864L40.4046 28.2993L39.5793 28.864ZM37.3713 22.816V21.816H36.2647L36.3764 22.9169L37.3713 22.816ZM39.1473 22.816L40.1403 22.6982L40.0356 21.816H39.1473V22.816ZM41.1152 28L40.2936 28.5701L40.2992 28.578L41.1152 28ZM45.2433 31.648L44.7691 32.5285L44.7792 32.5339L44.7893 32.539L45.2433 31.648ZM56.6193 31.36L57.1269 32.2215L56.6193 31.36ZM60.8913 26.992L61.7604 27.4865L60.8913 26.992ZM62.4753 2.368H63.4753V1.368H62.4753V2.368ZM47.4993 2.368H46.4993V3.368H47.4993V2.368ZM47.4993 0.591998V-0.408002H46.4993V0.591998H47.4993ZM64.2033 0.591998H65.2033V-0.408002H64.2033V0.591998ZM62.3792 27.904L61.5094 27.4107L61.507 27.415L62.3792 27.904ZM57.4832 32.896L56.9785 32.0327L56.9727 32.0361L57.4832 32.896ZM50.7153 33.72C48.5999 33.72 46.648 33.2449 44.8438 32.2985L43.9147 34.0695C46.0145 35.1711 48.2866 35.72 50.7153 35.72V33.72ZM44.8551 32.3045C43.0423 31.3238 41.5624 29.9915 40.4046 28.2993L38.7539 29.4287C40.0921 31.3845 41.8122 32.9322 43.9034 34.0635L44.8551 32.3045ZM40.4046 28.2993C39.2514 26.6139 38.5733 24.7575 38.3661 22.7151L36.3764 22.9169C36.6172 25.2905 37.4111 27.4661 38.7539 29.4287L40.4046 28.2993ZM37.3713 23.816H39.1473V21.816H37.3713V23.816ZM38.1542 22.9338C38.3976 24.985 39.1127 26.8682 40.2937 28.5701L41.9368 27.4299C40.9418 25.9958 40.3449 24.423 40.1403 22.6982L38.1542 22.9338ZM40.2992 28.578C41.4767 30.2404 42.97 31.5597 44.7691 32.5285L45.7174 30.7675C44.1885 29.9443 42.9298 28.8316 41.9313 27.422L40.2992 28.578ZM44.7893 32.539C46.6296 33.4765 48.6096 33.944 50.7153 33.944V31.944C48.9169 31.944 47.2489 31.5475 45.6972 30.757L44.7893 32.539ZM50.7153 33.944C53.0321 33.944 55.1762 33.3711 57.1269 32.2215L56.1116 30.4985C54.4783 31.4609 52.6864 31.944 50.7153 31.944V33.944ZM57.1269 32.2215C59.0736 31.0744 60.6204 29.4901 61.7604 27.4865L60.0221 26.4975C59.0501 28.2059 57.7489 29.5336 56.1116 30.4985L57.1269 32.2215ZM61.7604 27.4865C62.9089 25.468 63.4753 23.2153 63.4753 20.752H61.4753C61.4753 22.8967 60.9856 24.804 60.0221 26.4975L61.7604 27.4865ZM63.4753 20.752V2.368H61.4753V20.752H63.4753ZM62.4753 1.368H47.4993V3.368H62.4753V1.368ZM48.4993 2.368V0.591998H46.4993V2.368H48.4993ZM47.4993 1.592H64.2033V-0.408002H47.4993V1.592ZM63.2033 0.591998V20.752H65.2033V0.591998H63.2033ZM63.2033 20.752C63.2033 23.2146 62.6346 25.4268 61.5094 27.4107L63.2491 28.3973C64.5559 26.0932 65.2033 23.5374 65.2033 20.752H63.2033ZM61.507 27.415C60.4096 29.3725 58.9041 30.907 56.9786 32.0327L57.9879 33.7593C60.2224 32.453 61.9809 30.6595 63.2515 28.393L61.507 27.415ZM56.9727 32.0361C55.0847 33.1572 53.0061 33.72 50.7153 33.72V35.72C53.3524 35.72 55.7858 35.0668 57.9938 33.7559L56.9727 32.0361Z" fill="#00FF82"/>
</svg>
