<svg width="38" height="38" viewBox="0 0 38 38" fill="none" xmlns="http://www.w3.org/2000/svg">
<path d="M18.9512 0C8.48458 0 0 8.61944 0 19.2479C0 28.2684 6.11568 35.8144 14.359 37.9024C14.2692 37.6432 14.2134 37.3414 14.2134 36.9688V33.6778C13.4437 33.6778 12.1556 33.6778 11.8325 33.6778C10.5344 33.6778 9.38189 33.1127 8.82356 32.0596C8.20342 30.891 8.09574 29.1028 6.55636 28.0091C6.09972 27.6446 6.44868 27.2294 6.97311 27.2841C7.9442 27.5636 8.74978 28.24 9.50951 29.2445C10.2632 30.2511 10.6182 30.4779 12.03 30.4779C12.7139 30.4779 13.7368 30.4374 14.7 30.2835C15.2184 28.9488 16.1137 27.7175 17.2084 27.1362C10.8974 26.478 7.88438 23.2883 7.88438 18.9603C7.88438 17.0971 8.66604 15.2926 9.99605 13.7737C9.55936 12.2669 9.011 9.19258 10.1616 8.01997C13.001 8.01997 14.7179 9.89129 15.1307 10.3956C16.5464 9.90344 18.0998 9.62396 19.7329 9.62396C21.368 9.62396 22.9293 9.90344 24.3471 10.3996C24.7558 9.89737 26.4727 8.01997 29.3182 8.01997C30.4747 9.19258 29.9204 12.2811 29.4797 13.7858C30.7997 15.3007 31.5774 17.0991 31.5774 18.9603C31.5774 23.2863 28.5704 26.474 22.2693 27.1362C24.0041 28.0537 25.2683 30.6379 25.2683 32.5821V36.9688C25.2683 37.1349 25.2324 37.2544 25.2125 37.3982C32.5983 34.7694 37.9024 27.6466 37.9024 19.2479C37.9024 8.61944 29.4179 0 18.9512 0Z" fill="#868686"/>
</svg>
