<svg width="39" height="39" viewBox="0 0 39 39" fill="none" xmlns="http://www.w3.org/2000/svg">
<path d="M19.5 15.789C17.3211 15.789 15.5481 17.562 15.5481 19.7409C15.5481 21.9198 17.3211 23.6927 19.5 23.6927C21.6789 23.6927 23.4518 21.9198 23.4518 19.7409C23.4518 17.562 21.6789 15.789 19.5 15.789Z" fill="#868686"/>
<path d="M25.1854 13.5447C24.9028 13.5447 24.6733 13.7742 24.6733 14.0555C24.6733 14.338 24.9028 14.5663 25.1854 14.5663C25.4667 14.5663 25.6962 14.338 25.6962 14.0555C25.6962 13.7742 25.4667 13.5447 25.1854 13.5447Z" fill="#868686"/>
<path d="M19.5 0.789612C9.05214 0.789612 0.548767 9.29298 0.548767 19.7408C0.548767 30.1887 9.05214 38.6921 19.5 38.6921C29.9478 38.6921 38.4512 30.1887 38.4512 19.7408C38.4512 9.29298 29.9478 0.789612 19.5 0.789612ZM30.3291 23.1523C30.3291 27.2424 27.0015 30.5699 22.9115 30.5699H16.0885C11.9985 30.5699 8.67089 27.2424 8.67089 23.1523V16.3294C8.67089 12.2393 11.9985 8.91174 16.0885 8.91174H22.9115C27.0015 8.91174 30.3291 12.2393 30.3291 16.3294V23.1523Z" fill="#868686"/>
<path d="M22.9115 10.4626H16.0885C12.8535 10.4626 10.2218 13.0956 10.2218 16.3294V23.1523C10.2218 26.3861 12.8535 29.019 16.0885 29.019H22.9115C26.1453 29.019 28.7782 26.3861 28.7782 23.1523V16.3294C28.7782 13.0956 26.1453 10.4626 22.9115 10.4626ZM19.5 25.2436C16.4661 25.2436 13.9972 22.7748 13.9972 19.7408C13.9972 16.7069 16.4661 14.2381 19.5 14.2381C22.5339 14.2381 25.0028 16.7069 25.0028 19.7408C25.0028 22.7748 22.5339 25.2436 19.5 25.2436ZM25.1854 16.1184C24.0478 16.1184 23.1224 15.193 23.1224 14.0555C23.1224 12.9179 24.0478 11.9938 25.1854 11.9938C26.3217 11.9938 27.2471 12.9179 27.2471 14.0555C27.2471 15.193 26.3229 16.1184 25.1854 16.1184Z" fill="#868686"/>
</svg>
