<svg width="39" height="39" viewBox="0 0 39 39" fill="none" xmlns="http://www.w3.org/2000/svg">
<path d="M19.2256 0.789612C8.76051 0.789612 0.274414 9.27448 0.274414 19.7408C0.274414 30.2072 8.76051 38.6921 19.2256 38.6921C29.692 38.6921 38.1769 30.2072 38.1769 19.7408C38.1769 9.27448 29.692 0.789612 19.2256 0.789612ZM12.1128 9.3226C13.4428 9.3226 14.3287 10.2085 14.3287 11.3892C14.3287 12.5712 13.4428 13.4571 11.9659 13.4571C10.6359 13.4583 9.75002 12.5712 9.75002 11.3892C9.75002 10.2085 10.6359 9.3226 12.1128 9.3226ZM14.4878 27.6372H9.75002V15.003H14.4878V27.6372ZM30.2805 27.6372H25.8215V20.7328C25.8215 18.8229 24.6322 18.3824 24.1868 18.3824C23.7414 18.3824 22.2534 18.6761 22.2534 20.7328C22.2534 21.0265 22.2534 27.6372 22.2534 27.6372H17.6464V15.003H22.2546V16.7649C22.8493 15.7371 24.0387 15.003 26.2682 15.003C28.4977 15.003 30.2805 16.7649 30.2805 20.7328V27.6372Z" fill="#868686"/>
</svg>
