<svg width="38" height="38" viewBox="0 0 38 38" fill="none" xmlns="http://www.w3.org/2000/svg">
<path fill-rule="evenodd" clip-rule="evenodd" d="M18.95 37.9C29.4157 37.9 37.9 29.4157 37.9 18.95C37.9 8.48432 29.4157 0 18.95 0C8.48432 0 0 8.48432 0 18.95C0 29.4157 8.48432 37.9 18.95 37.9ZM29.032 11.5255L25.5813 26.8088C25.5628 26.8927 25.5332 26.9717 25.4949 27.0457C25.4715 27.0913 25.4431 27.1358 25.4135 27.1765C25.2963 27.3356 25.1322 27.4578 24.9397 27.5244C24.6177 27.6354 24.2599 27.5713 23.9947 27.3554L19.4854 23.6653L17.5929 27.0704C17.3992 27.4195 17.0155 27.6169 16.6195 27.5713C16.2222 27.5256 15.8928 27.2456 15.783 26.8631L13.9769 20.539L9.63538 19.6705C9.20852 19.5854 8.88898 19.2301 8.84827 18.7958C8.84457 18.7686 8.84333 18.7415 8.84333 18.7156C8.84333 18.6835 8.84457 18.6527 8.84704 18.6231C8.87664 18.2566 9.10982 17.9309 9.45896 17.7903L27.6934 10.3978C27.707 10.3917 27.7205 10.3867 27.7329 10.3818C27.8822 10.3275 28.0364 10.3115 28.1844 10.3287C28.293 10.3411 28.4003 10.3719 28.5027 10.4225C28.5138 10.4274 28.5237 10.4324 28.5336 10.4385C28.6693 10.5101 28.789 10.6137 28.8802 10.7445C28.9271 10.8124 28.9654 10.8864 28.9937 10.9629C29.0283 11.0554 29.0493 11.1516 29.0542 11.2466C29.0604 11.3379 29.053 11.4317 29.032 11.5255ZM23.4765 15.366L18.4331 21.5297C18.3911 21.5815 18.3553 21.6358 18.3257 21.6926L17.0254 24.0317L15.9101 20.1294L23.4765 15.366Z" fill="#868686"/>
</svg>
